<?xml version="1.0" encoding="UTF-8" standalone="no"?>
<svg
   viewBox="0 0 24 24"
   version="1.1"
   id="svg931"
   sodipodi:docname="text-box-edit.svg"
   inkscape:version="1.2.2 (b0a8486541, 2022-12-01)"
   xmlns:inkscape="http://www.inkscape.org/namespaces/inkscape"
   xmlns:sodipodi="http://sodipodi.sourceforge.net/DTD/sodipodi-0.dtd"
   xmlns="http://www.w3.org/2000/svg"
   xmlns:svg="http://www.w3.org/2000/svg">
  <defs
     id="defs935" />
  <sodipodi:namedview
     id="namedview933"
     pagecolor="#ffffff"
     bordercolor="#000000"
     borderopacity="0.25"
     inkscape:showpageshadow="2"
     inkscape:pageopacity="0.0"
     inkscape:pagecheckerboard="0"
     inkscape:deskcolor="#d1d1d1"
     showgrid="false"
     inkscape:zoom="34.708333"
     inkscape:cx="11.985594"
     inkscape:cy="12"
     inkscape:window-width="1920"
     inkscape:window-height="1010"
     inkscape:window-x="0"
     inkscape:window-y="34"
     inkscape:window-maximized="1"
     inkscape:current-layer="svg931" />
  <path
     d="M10 19.11L12.11 17H7V15H14V15.12L16.12 13H7V11H17V12.12L18.24 10.89C18.72 10.41 19.35 10.14 20.04 10.14C20.37 10.14 20.7 10.21 21 10.33V5C21 3.89 20.1 3 19 3H5C3.89 3 3 3.89 3 5V19C3 20.11 3.9 21 5 21H10V19.11M7 7H17V9H7V7M21.7 14.35L20.7 15.35L18.65 13.3L19.65 12.3C19.86 12.09 20.21 12.09 20.42 12.3L21.7 13.58C21.91 13.79 21.91 14.14 21.7 14.35M12 19.94L18.06 13.88L20.11 15.93L14.06 22H12V19.94Z"
     id="path929"
     style="fill:#ff2a2a" />
</svg>
